<svg id="svg" version="1.1" xmlns="http://www.w3.org/2000/svg" xmlns:xlink="http://www.w3.org/1999/xlink" width="400" height="400" viewBox="0, 0, 400,400"><g id="svgg"><path id="path0" d="M215.744 162.400 C 215.744 164.490,215.812 165.345,215.894 164.300 C 215.976 163.255,215.976 161.545,215.894 160.500 C 215.812 159.455,215.744 160.310,215.744 162.400 M249.309 175.600 C 249.309 176.590,249.387 176.995,249.482 176.500 C 249.578 176.005,249.578 175.195,249.482 174.700 C 249.387 174.205,249.309 174.610,249.309 175.600 M249.293 180.000 C 249.293 180.770,249.375 181.085,249.476 180.700 C 249.576 180.315,249.576 179.685,249.476 179.300 C 249.375 178.915,249.293 179.230,249.293 180.000 M178.400 180.200 C 178.400 180.530,178.109 180.800,177.753 180.800 C 177.270 180.800,177.174 181.027,177.374 181.700 C 177.521 182.195,177.751 183.315,177.885 184.188 C 178.134 185.810,179.285 187.163,180.438 187.187 C 181.166 187.202,182.400 188.429,182.400 189.137 C 182.400 189.576,184.684 189.449,185.148 188.985 C 185.849 188.284,185.230 183.391,184.350 182.678 C 183.828 182.254,183.399 181.625,183.399 181.280 C 183.398 180.859,182.935 180.601,181.999 180.497 C 181.229 180.412,180.429 180.175,180.220 179.971 C 179.620 179.385,178.400 179.539,178.400 180.200 M166.000 180.322 C 165.670 180.431,165.265 180.718,165.100 180.960 C 164.893 181.263,164.681 181.214,164.417 180.803 C 164.111 180.328,163.932 180.308,163.537 180.703 C 163.160 181.080,163.156 181.200,163.520 181.200 C 163.784 181.200,164.000 181.380,164.000 181.600 C 164.000 181.820,163.749 182.000,163.443 182.000 C 163.136 182.000,162.782 182.270,162.655 182.600 C 162.529 182.930,162.149 183.200,161.813 183.200 C 161.426 183.200,161.200 183.569,161.200 184.200 C 161.200 185.193,161.227 185.200,164.800 185.200 L 168.400 185.200 168.393 183.500 C 168.386 181.644,167.113 179.955,166.000 180.322 M227.643 182.617 C 226.294 184.904,226.166 185.961,227.157 186.655 C 227.628 186.985,227.930 187.390,227.827 187.556 C 227.421 188.213,229.897 187.705,230.646 186.977 C 231.422 186.223,231.425 186.146,230.758 184.400 C 230.380 183.410,229.970 182.285,229.848 181.900 C 229.491 180.779,228.546 181.087,227.643 182.617 M240.860 182.052 C 240.403 182.785,240.440 183.136,241.124 184.552 C 241.561 185.459,242.343 187.142,242.860 188.293 C 243.377 189.444,244.029 190.389,244.309 190.393 C 244.588 190.397,245.022 190.850,245.273 191.400 C 245.523 191.950,246.054 192.400,246.452 192.400 C 246.927 192.400,247.097 192.604,246.947 192.994 C 246.798 193.383,247.075 193.724,247.748 193.980 C 249.251 194.551,249.552 196.200,248.347 197.251 C 247.720 197.796,247.616 198.029,248.037 197.938 C 248.805 197.772,251.600 200.457,251.600 201.360 C 251.600 201.712,251.780 202.000,252.000 202.000 C 252.220 202.000,252.400 202.349,252.400 202.776 C 252.400 203.203,252.580 203.664,252.800 203.800 C 253.020 203.936,253.200 204.667,253.200 205.424 C 253.200 206.181,253.380 206.800,253.600 206.800 C 253.846 206.800,254.000 208.792,254.000 211.976 C 254.000 214.996,253.833 217.256,253.600 217.400 C 253.380 217.536,253.200 218.087,253.200 218.624 C 253.200 219.161,253.020 219.600,252.800 219.600 C 252.580 219.600,252.400 219.955,252.400 220.388 C 252.400 220.821,252.011 221.856,251.535 222.688 C 251.059 223.520,250.425 224.675,250.127 225.256 C 249.177 227.108,243.595 232.400,242.593 232.400 C 242.267 232.400,242.000 232.580,242.000 232.800 C 242.000 233.020,241.640 233.200,241.200 233.200 C 240.760 233.200,240.399 233.335,240.397 233.500 C 240.392 233.941,238.381 234.800,237.354 234.800 C 236.866 234.800,236.394 235.017,236.306 235.281 C 236.116 235.853,225.068 235.889,224.283 235.320 C 224.017 235.127,223.260 234.915,222.600 234.847 C 221.940 234.779,221.340 234.561,221.267 234.362 C 221.193 234.163,220.833 233.996,220.467 233.991 C 220.100 233.986,219.350 233.630,218.800 233.200 C 218.250 232.770,217.597 232.414,217.348 232.409 C 217.100 232.404,215.980 231.525,214.859 230.456 C 213.738 229.387,212.726 228.607,212.610 228.723 C 212.495 228.839,212.400 228.655,212.400 228.315 C 212.400 227.975,211.860 227.473,211.200 227.200 C 210.469 226.897,210.000 226.409,210.000 225.951 C 210.000 225.538,209.820 225.200,209.600 225.200 C 209.380 225.200,209.200 224.840,209.200 224.400 C 209.200 223.960,209.020 223.600,208.800 223.600 C 208.580 223.600,208.400 223.171,208.400 222.646 C 208.400 221.451,207.424 219.511,207.022 219.906 C 206.857 220.068,206.784 219.823,206.861 219.361 C 206.937 218.900,206.753 218.225,206.451 217.861 C 206.094 217.432,206.059 217.200,206.351 217.200 C 206.598 217.200,206.800 217.009,206.800 216.776 C 206.800 216.543,206.620 216.464,206.400 216.600 C 206.155 216.751,205.974 216.023,205.932 214.724 C 205.822 211.285,206.052 209.021,206.542 208.706 C 206.874 208.493,206.862 208.411,206.500 208.406 C 206.212 208.403,206.000 207.890,206.000 207.200 C 206.000 206.540,206.180 206.000,206.400 206.000 C 206.910 206.000,206.916 204.357,206.410 203.026 C 205.817 201.467,198.986 201.679,198.750 203.264 C 198.722 203.449,198.678 203.765,198.650 203.967 C 198.623 204.168,198.465 204.468,198.300 204.633 C 198.135 204.798,198.000 205.983,198.000 207.267 C 198.000 208.550,197.847 209.600,197.661 209.600 C 197.134 209.600,197.189 212.141,197.724 212.522 C 198.089 212.782,198.083 212.908,197.700 213.064 C 197.425 213.175,197.200 213.792,197.200 214.433 C 197.200 215.097,196.984 215.603,196.700 215.606 C 196.368 215.610,196.401 215.740,196.800 215.994 C 197.288 216.304,197.309 216.522,196.914 217.159 C 196.534 217.774,196.534 217.992,196.914 218.171 C 197.291 218.349,197.288 218.452,196.900 218.633 C 196.625 218.762,196.400 219.091,196.400 219.366 C 196.400 220.171,194.541 223.608,194.259 223.325 C 194.116 223.183,194.000 223.423,194.000 223.858 C 194.000 224.293,193.685 224.998,193.300 225.425 C 192.915 225.851,192.365 226.657,192.078 227.215 C 191.791 227.773,191.161 228.403,190.678 228.615 C 190.195 228.827,189.622 229.405,189.405 229.900 C 189.188 230.395,188.810 230.800,188.564 230.800 C 188.319 230.800,187.597 231.298,186.959 231.908 C 186.322 232.517,185.366 233.048,184.836 233.088 C 184.306 233.127,183.766 233.304,183.636 233.481 C 183.396 233.807,182.049 234.490,180.600 235.020 C 180.160 235.181,178.990 235.393,178.000 235.491 C 177.010 235.589,175.975 235.855,175.700 236.083 C 175.352 236.372,175.200 236.365,175.200 236.059 C 175.200 235.748,174.887 235.739,174.131 236.026 C 173.543 236.250,172.778 236.309,172.431 236.158 C 172.084 236.007,170.900 235.804,169.800 235.708 C 168.700 235.611,167.740 235.367,167.667 235.166 C 167.593 234.965,167.268 234.800,166.943 234.800 C 166.587 234.800,166.465 234.998,166.635 235.300 C 166.861 235.700,166.810 235.700,166.379 235.300 C 166.082 235.025,165.516 234.800,165.120 234.800 C 164.724 234.800,164.400 234.664,164.400 234.498 C 164.400 234.331,163.815 233.956,163.100 233.664 C 160.457 232.584,159.795 232.159,157.868 230.300 C 156.784 229.255,155.764 228.400,155.602 228.400 C 155.182 228.400,152.934 224.939,151.284 221.755 C 150.360 219.970,149.988 218.925,149.872 217.782 C 149.804 217.112,149.631 216.374,149.488 216.143 C 148.928 215.236,149.074 207.200,149.652 207.200 C 150.448 207.200,150.024 202.854,149.149 202.038 C 148.490 201.425,148.363 200.992,148.584 200.123 C 148.742 199.505,148.964 198.190,149.078 197.200 C 149.192 196.210,149.430 195.220,149.606 195.000 C 150.327 194.100,150.236 191.032,149.484 190.880 C 148.712 190.724,146.000 193.369,146.000 194.278 C 146.000 194.565,145.820 194.800,145.600 194.800 C 145.380 194.800,145.200 195.160,145.200 195.600 C 145.200 196.040,145.020 196.400,144.800 196.400 C 144.580 196.400,144.400 196.634,144.400 196.920 C 144.400 197.656,143.459 199.593,143.100 199.597 C 142.935 199.599,142.800 200.320,142.800 201.200 C 142.800 202.080,142.620 202.800,142.400 202.800 C 142.180 202.800,142.000 203.329,142.000 203.976 C 142.000 204.623,141.820 205.264,141.600 205.400 C 140.985 205.780,141.077 217.307,141.700 217.979 C 142.106 218.416,142.088 218.458,141.600 218.200 C 141.112 217.942,141.094 217.984,141.500 218.421 C 141.775 218.718,142.000 219.629,142.000 220.447 C 142.000 221.264,142.178 221.993,142.397 222.067 C 142.615 222.140,142.833 222.682,142.881 223.271 C 142.930 223.860,143.112 224.255,143.285 224.148 C 143.458 224.040,143.600 224.313,143.600 224.753 C 143.600 225.193,143.780 225.664,144.000 225.800 C 144.220 225.936,144.400 226.357,144.400 226.735 C 144.400 227.114,144.760 227.683,145.200 228.000 C 146.154 228.688,146.219 229.438,145.396 230.261 C 145.064 230.593,144.898 231.034,145.026 231.242 C 145.154 231.450,145.028 231.570,144.744 231.510 C 144.461 231.449,144.045 231.805,143.820 232.300 C 143.595 232.795,143.273 233.200,143.105 233.200 C 142.937 233.200,142.800 233.560,142.800 234.000 C 142.800 234.440,142.620 234.800,142.400 234.800 C 142.180 234.800,142.000 235.160,142.000 235.600 C 142.000 236.040,141.820 236.400,141.600 236.400 C 141.380 236.400,141.200 236.681,141.200 237.024 C 141.200 237.393,141.012 237.531,140.738 237.362 C 140.464 237.193,140.385 237.251,140.542 237.506 C 140.688 237.742,140.536 238.207,140.204 238.539 C 139.872 238.871,139.600 239.346,139.600 239.595 C 139.600 239.844,139.392 239.919,139.138 239.762 C 138.884 239.605,138.773 239.639,138.891 239.838 C 139.812 241.390,138.491 242.000,134.213 242.000 L 130.000 242.000 130.000 243.200 C 130.000 244.133,130.178 244.400,130.800 244.400 C 132.040 244.400,132.040 257.506,130.800 258.400 C 128.502 260.056,130.120 262.004,133.780 261.987 C 137.689 261.970,139.507 260.063,137.200 258.400 C 136.584 257.956,136.400 257.365,136.400 255.832 C 136.400 254.283,136.507 253.947,136.880 254.320 C 137.488 254.928,138.948 254.936,140.105 254.338 C 140.597 254.084,141.270 253.740,141.600 253.575 C 141.930 253.410,142.151 253.064,142.090 252.807 C 142.030 252.551,142.144 252.442,142.345 252.566 C 142.545 252.690,142.955 252.489,143.255 252.119 C 143.724 251.540,143.716 251.495,143.200 251.792 C 142.773 252.038,142.802 251.906,143.301 251.336 C 143.686 250.896,143.872 250.405,143.713 250.246 C 143.554 250.088,143.701 250.064,144.039 250.193 C 145.121 250.609,144.532 245.708,143.346 244.429 C 142.077 243.060,142.149 242.800,143.800 242.800 C 144.570 242.800,145.200 242.620,145.200 242.400 C 145.200 242.180,145.729 242.000,146.376 242.000 C 147.023 242.000,147.664 241.820,147.800 241.600 C 147.936 241.380,148.487 241.200,149.024 241.200 C 149.561 241.200,150.000 241.020,150.000 240.800 C 150.000 240.580,150.540 240.400,151.200 240.400 C 151.860 240.400,152.400 240.220,152.400 240.000 C 152.400 239.181,156.975 239.533,157.600 240.400 C 157.917 240.840,158.497 241.200,158.888 241.200 C 159.280 241.200,159.600 241.380,159.600 241.600 C 159.600 241.820,159.317 242.000,158.971 242.000 C 157.929 242.000,157.200 243.059,157.200 244.571 C 157.200 245.357,157.359 246.000,157.553 246.000 C 157.748 246.000,158.003 246.367,158.120 246.816 C 158.286 247.450,158.549 247.578,159.300 247.389 C 159.971 247.221,160.267 247.315,160.267 247.696 C 160.267 248.042,159.736 248.281,158.833 248.340 C 158.045 248.392,157.340 248.607,157.267 248.818 C 157.193 249.028,156.903 249.200,156.622 249.200 C 156.306 249.200,156.154 249.605,156.226 250.259 C 156.339 251.287,157.094 252.113,157.623 251.786 C 158.433 251.285,158.015 257.714,157.200 258.285 C 156.553 258.738,156.385 259.217,156.478 260.338 L 156.600 261.800 159.535 261.918 C 161.279 261.988,162.376 261.885,162.239 261.663 C 162.112 261.458,162.322 261.315,162.704 261.345 C 163.796 261.431,163.893 258.989,162.824 258.322 C 162.062 257.846,162.000 257.424,162.000 252.704 C 162.000 249.568,161.846 247.600,161.600 247.600 C 161.380 247.600,161.203 247.195,161.206 246.700 C 161.211 245.972,161.286 245.915,161.600 246.400 C 161.879 246.831,161.989 246.432,161.994 244.980 C 161.997 243.869,161.775 242.723,161.500 242.433 C 160.981 241.886,160.995 241.891,163.595 243.200 C 164.032 243.420,165.191 243.600,166.171 243.600 C 167.151 243.600,168.052 243.760,168.173 243.956 C 168.495 244.477,178.000 244.538,178.000 244.018 C 178.000 243.774,178.997 243.600,180.400 243.600 C 181.733 243.600,182.800 243.422,182.800 243.200 C 182.800 242.980,183.233 242.800,183.762 242.800 C 184.730 242.800,188.085 241.259,188.333 240.700 C 188.407 240.535,188.735 240.400,189.062 240.400 C 189.389 240.400,189.929 240.128,190.261 239.796 C 190.593 239.464,191.058 239.312,191.294 239.458 C 191.549 239.615,191.607 239.536,191.438 239.262 C 191.277 239.001,191.385 238.800,191.688 238.800 C 191.983 238.800,192.483 238.440,192.800 238.000 C 193.117 237.560,193.601 237.200,193.874 237.200 C 194.148 237.200,194.565 236.840,194.800 236.400 C 195.035 235.960,195.420 235.600,195.654 235.600 C 196.335 235.600,198.423 233.160,198.137 232.698 C 197.994 232.466,198.057 232.388,198.278 232.525 C 198.499 232.661,198.917 232.329,199.207 231.786 C 199.498 231.244,199.885 230.800,200.068 230.800 C 200.250 230.800,200.400 230.517,200.400 230.171 C 200.400 229.000,201.504 228.246,202.200 228.943 C 202.530 229.273,202.800 229.753,202.800 230.011 C 202.800 230.268,203.340 230.983,204.000 231.600 C 204.660 232.217,205.200 232.885,205.200 233.085 C 205.200 233.755,206.842 235.221,207.286 234.947 C 207.537 234.791,207.610 234.860,207.457 235.108 C 207.311 235.345,207.778 235.956,208.495 236.465 C 209.213 236.974,210.322 237.888,210.959 238.496 C 211.597 239.103,212.362 239.600,212.659 239.600 C 212.957 239.600,213.200 239.780,213.200 240.000 C 213.200 240.220,213.560 240.400,214.000 240.400 C 214.440 240.400,214.801 240.535,214.803 240.700 C 214.807 241.059,216.744 242.000,217.480 242.000 C 217.766 242.000,218.000 242.180,218.000 242.400 C 218.000 242.620,218.619 242.800,219.376 242.800 C 220.133 242.800,220.881 243.008,221.038 243.262 C 221.215 243.548,221.148 243.615,220.862 243.438 C 220.601 243.277,220.400 243.385,220.400 243.688 C 220.400 243.983,220.040 244.483,219.600 244.800 C 219.160 245.117,218.800 245.697,218.800 246.088 C 218.800 246.480,218.620 246.800,218.400 246.800 C 218.180 246.800,218.000 247.160,218.000 247.600 C 218.000 248.040,217.820 248.400,217.600 248.400 C 217.103 248.400,217.062 254.139,217.552 255.105 C 217.746 255.487,218.259 256.520,218.692 257.400 C 219.125 258.280,219.700 258.951,219.970 258.890 C 220.239 258.830,220.354 258.951,220.225 259.160 C 219.946 259.611,222.059 261.200,222.938 261.200 C 223.276 261.200,223.664 261.380,223.800 261.600 C 224.110 262.101,230.104 262.131,230.620 261.634 C 230.829 261.432,231.450 261.207,232.000 261.134 C 232.718 261.038,233.038 260.718,233.134 260.000 C 233.207 259.450,233.432 258.829,233.634 258.620 C 234.681 257.534,234.043 254.000,232.800 254.000 C 231.867 254.000,231.600 254.178,231.600 254.800 C 231.600 255.240,231.420 255.600,231.200 255.600 C 230.980 255.600,230.800 255.849,230.800 256.154 C 230.800 257.053,228.952 258.000,227.196 258.000 C 225.465 258.000,223.600 256.661,223.600 255.418 C 223.600 255.078,223.420 254.800,223.200 254.800 C 222.980 254.800,222.800 254.116,222.800 253.280 C 222.800 252.444,222.592 251.552,222.337 251.297 C 221.986 250.946,221.986 250.698,222.337 250.277 C 222.591 249.970,222.838 249.255,222.884 248.688 C 222.931 248.121,223.157 247.689,223.385 247.728 C 223.613 247.768,223.755 247.575,223.700 247.300 C 223.645 247.025,223.825 246.845,224.100 246.900 C 224.375 246.955,224.561 246.794,224.514 246.542 C 224.456 246.234,225.338 246.084,227.212 246.084 C 228.747 246.084,229.896 246.245,229.774 246.442 C 229.652 246.639,229.833 246.800,230.176 246.800 C 230.519 246.800,230.800 247.042,230.800 247.338 C 230.800 248.592,232.324 249.393,233.200 248.600 C 234.044 247.836,234.275 246.217,233.600 245.800 C 232.653 245.215,233.228 244.400,234.587 244.400 C 235.612 244.400,235.919 244.546,235.760 244.960 C 235.642 245.267,235.738 245.638,235.973 245.783 C 236.857 246.330,236.520 257.737,235.600 258.400 C 232.676 260.508,238.434 263.484,241.605 261.504 C 242.238 261.109,242.562 261.109,243.195 261.504 C 244.318 262.206,248.180 262.147,248.784 261.419 C 249.673 260.348,249.559 258.913,248.541 258.368 C 247.651 257.892,247.600 257.652,247.600 253.932 C 247.600 251.577,247.440 250.000,247.200 250.000 C 246.980 250.000,246.799 249.685,246.797 249.300 C 246.795 248.915,246.309 248.375,245.717 248.100 C 244.429 247.502,242.000 247.437,242.000 248.000 C 242.000 248.220,241.640 248.400,241.200 248.400 C 239.875 248.400,240.034 244.062,241.403 242.872 C 241.955 242.392,242.675 242.000,243.003 242.000 C 243.331 242.000,243.600 241.820,243.600 241.600 C 243.600 241.380,243.878 241.200,244.217 241.200 C 244.556 241.200,245.220 240.840,245.692 240.400 C 246.164 239.960,246.839 239.600,247.190 239.600 C 248.489 239.600,257.200 231.066,257.200 229.793 C 257.200 229.467,257.380 229.200,257.600 229.200 C 257.820 229.200,258.000 228.840,258.000 228.400 C 258.000 227.960,258.180 227.600,258.400 227.600 C 258.620 227.600,258.800 227.240,258.800 226.800 C 258.800 226.360,258.980 226.000,259.200 226.000 C 259.420 226.000,259.600 225.640,259.600 225.200 C 259.600 224.760,259.780 224.400,260.000 224.400 C 260.220 224.400,260.400 223.860,260.400 223.200 C 260.400 222.540,260.580 222.000,260.800 222.000 C 261.020 222.000,261.200 221.475,261.200 220.833 C 261.200 220.192,261.366 219.607,261.569 219.533 C 261.926 219.404,262.111 214.880,262.036 208.076 C 262.013 205.917,261.856 204.842,261.590 205.006 C 261.068 205.329,261.264 204.300,261.800 203.906 C 262.020 203.744,261.776 203.609,261.258 203.606 C 260.739 203.603,259.970 203.161,259.547 202.624 C 259.125 202.087,258.379 201.524,257.890 201.373 C 254.659 200.379,250.000 193.848,250.000 190.315 C 250.000 189.580,249.712 188.567,249.360 188.064 C 249.008 187.561,248.814 186.790,248.929 186.351 C 249.064 185.832,248.903 185.464,248.469 185.303 C 248.101 185.167,247.530 184.773,247.200 184.427 C 246.260 183.442,245.014 182.546,245.340 183.089 C 245.501 183.357,244.861 183.177,243.917 182.689 C 242.972 182.200,242.140 181.665,242.067 181.500 C 241.835 180.978,241.410 181.172,240.860 182.052 M212.876 184.224 C 212.588 184.550,212.155 184.696,211.914 184.547 C 211.652 184.385,211.591 184.461,211.762 184.738 C 211.931 185.012,211.793 185.200,211.424 185.200 C 211.081 185.200,210.800 185.380,210.800 185.600 C 210.800 185.820,210.522 186.000,210.182 186.000 C 209.471 186.000,207.888 187.472,207.493 188.501 C 207.346 188.885,207.015 189.200,206.759 189.200 C 204.257 189.200,203.809 193.176,206.300 193.278 C 207.345 193.321,208.920 193.393,209.800 193.438 C 213.292 193.618,214.823 193.186,215.070 191.952 C 215.194 191.328,215.545 190.612,215.848 190.360 C 216.884 189.500,216.597 184.146,215.500 183.852 C 214.117 183.481,213.448 183.576,212.876 184.224 M195.618 189.967 C 194.522 192.014,196.027 193.779,198.167 192.957 C 198.858 192.692,199.046 191.600,198.400 191.600 C 198.180 191.600,198.000 191.305,198.000 190.944 C 198.000 190.327,196.942 189.241,196.314 189.213 C 196.157 189.206,195.843 189.545,195.618 189.967 M192.150 245.577 C 191.753 246.250,191.286 246.800,191.114 246.800 C 190.941 246.800,190.800 247.160,190.800 247.600 C 190.800 248.133,190.533 248.400,190.000 248.400 C 189.385 248.400,189.200 248.667,189.200 249.553 C 189.200 250.370,189.433 250.768,190.000 250.916 C 190.730 251.107,190.800 251.462,190.800 254.963 C 190.800 257.254,190.961 258.800,191.200 258.800 C 191.420 258.800,191.600 259.148,191.600 259.573 C 191.600 261.740,195.084 262.578,196.831 260.831 C 198.268 259.393,198.491 257.200,197.200 257.200 C 196.760 257.200,196.400 257.380,196.400 257.600 C 196.400 257.820,196.220 258.000,196.000 258.000 C 194.881 258.000,195.564 252.457,196.700 252.327 C 197.526 252.232,197.834 251.951,197.938 251.200 C 198.014 250.650,198.255 249.983,198.473 249.718 C 199.097 248.957,198.474 248.400,196.998 248.400 C 195.666 248.400,195.642 248.369,195.522 246.500 C 195.361 243.997,193.400 243.460,192.150 245.577 M264.500 245.410 C 264.005 245.939,263.600 246.755,263.600 247.223 C 263.600 247.738,263.284 248.158,262.800 248.284 C 262.251 248.428,262.004 248.823,262.013 249.547 C 262.025 250.585,262.903 252.164,263.265 251.801 C 263.368 251.699,263.498 253.367,263.555 255.507 C 263.647 258.945,263.775 259.552,264.650 260.700 C 266.045 262.530,268.413 262.579,269.464 260.800 C 269.854 260.140,270.314 259.600,270.486 259.600 C 270.659 259.600,270.800 259.046,270.800 258.370 C 270.800 257.277,270.677 257.148,269.700 257.212 C 267.545 257.354,267.556 257.368,267.682 254.532 C 267.769 252.571,267.959 251.821,268.400 251.701 C 268.933 251.557,268.933 251.586,268.400 251.963 C 268.070 252.197,267.997 252.391,268.238 252.394 C 269.173 252.407,270.800 250.561,270.800 249.487 C 270.800 248.485,270.674 248.400,269.200 248.400 L 267.600 248.400 267.600 246.400 C 267.600 244.044,266.198 243.596,264.500 245.410 M138.339 246.629 C 139.875 247.396,139.969 248.468,138.618 249.818 C 136.946 251.491,136.400 251.142,136.400 248.400 C 136.400 245.780,136.483 245.704,138.339 246.629 M148.600 248.000 C 148.464 248.220,147.823 248.400,147.176 248.400 C 146.529 248.400,146.000 248.580,146.000 248.800 C 146.000 249.020,145.755 249.200,145.455 249.200 C 144.652 249.200,144.970 250.986,145.962 252.052 C 147.155 253.332,147.181 257.570,146.000 258.307 C 143.724 259.729,145.323 262.000,148.600 262.000 C 152.918 262.000,155.061 259.691,152.000 258.336 C 150.855 257.829,150.800 257.692,150.800 255.356 L 150.800 252.907 152.494 253.217 C 155.481 253.763,157.199 250.341,155.028 248.171 C 154.440 247.583,151.798 247.350,152.149 247.917 C 152.256 248.091,151.997 248.260,151.572 248.292 C 151.148 248.324,150.800 248.181,150.800 247.975 C 150.800 247.472,148.913 247.494,148.600 248.000 M163.600 249.042 C 163.600 250.336,165.194 253.073,165.670 252.597 C 165.757 252.509,165.867 252.896,165.913 253.455 C 165.959 254.015,166.393 255.029,166.877 255.708 C 167.361 256.388,167.548 256.815,167.292 256.657 C 166.826 256.369,168.878 260.530,169.675 261.491 C 170.601 262.606,172.533 260.622,172.533 258.556 C 172.533 258.250,172.621 258.087,172.727 258.194 C 173.013 258.479,174.000 256.432,174.000 255.554 C 174.000 255.139,174.180 254.800,174.400 254.800 C 174.620 254.800,174.800 254.452,174.800 254.027 C 174.800 253.602,175.340 252.870,176.000 252.400 C 176.660 251.930,177.200 251.198,177.200 250.773 C 177.200 250.348,177.393 250.000,177.628 250.000 C 178.280 250.000,177.890 248.338,177.126 247.859 C 176.636 247.552,176.170 247.588,175.418 247.990 C 174.623 248.416,174.274 248.434,173.912 248.072 C 172.837 246.997,171.600 247.506,171.600 249.024 C 171.600 249.807,171.735 250.364,171.900 250.263 C 172.065 250.161,172.238 250.600,172.284 251.239 C 172.330 251.878,172.195 252.400,171.984 252.400 C 171.773 252.400,171.600 252.760,171.600 253.200 C 171.600 253.640,171.420 254.000,171.200 254.000 C 170.980 254.000,170.800 253.651,170.800 253.224 C 170.800 252.797,170.620 252.336,170.400 252.200 C 170.180 252.064,170.000 251.513,170.000 250.976 C 170.000 250.439,170.180 250.000,170.400 250.000 C 170.620 250.000,170.800 249.460,170.800 248.800 C 170.800 247.733,170.667 247.600,169.600 247.600 C 168.940 247.600,168.400 247.780,168.400 248.000 C 168.400 248.220,167.860 248.400,167.200 248.400 C 166.540 248.400,166.000 248.220,166.000 248.000 C 166.000 247.780,165.460 247.600,164.800 247.600 C 163.689 247.600,163.600 247.706,163.600 249.042 M182.000 248.000 C 182.000 248.220,181.542 248.400,180.982 248.400 C 178.826 248.400,177.118 251.690,178.500 253.179 C 178.906 253.616,178.887 253.663,178.400 253.429 C 177.974 253.224,177.992 253.299,178.462 253.687 C 179.070 254.188,179.045 254.308,178.162 255.158 C 177.178 256.105,176.847 258.134,177.600 258.600 C 177.820 258.736,178.000 259.266,178.000 259.778 C 178.000 261.574,182.532 262.908,183.920 261.520 C 184.293 261.147,184.507 261.147,184.880 261.520 C 185.609 262.249,187.787 262.099,188.538 261.269 C 189.546 260.154,189.446 257.200,188.400 257.200 C 187.659 257.200,187.599 256.929,187.587 253.500 C 187.574 249.670,187.143 248.400,185.856 248.400 C 185.495 248.400,185.200 248.220,185.200 248.000 C 185.200 247.780,184.480 247.600,183.600 247.600 C 182.720 247.600,182.000 247.780,182.000 248.000 M202.492 248.400 C 202.020 248.840,201.356 249.200,201.017 249.200 C 200.667 249.200,200.400 249.546,200.400 250.000 C 200.400 250.440,200.264 250.800,200.098 250.800 C 199.931 250.800,199.561 251.328,199.276 251.974 C 198.718 253.234,198.709 258.104,199.265 257.760 C 199.449 257.646,199.600 257.840,199.600 258.190 C 199.600 259.218,200.784 260.734,202.101 261.391 C 204.582 262.628,208.400 261.880,208.400 260.157 C 208.400 259.948,208.760 259.517,209.200 259.200 C 210.541 258.233,210.279 256.400,208.800 256.400 C 208.140 256.400,207.600 256.580,207.600 256.800 C 207.600 257.020,206.880 257.200,206.000 257.200 C 205.120 257.200,204.400 257.020,204.400 256.800 C 204.400 256.580,204.929 256.400,205.576 256.400 C 206.223 256.400,206.872 256.208,207.017 255.973 C 207.162 255.738,207.559 255.652,207.898 255.782 C 209.946 256.568,210.939 251.262,209.078 249.482 C 206.904 247.403,204.064 246.936,202.492 248.400 M254.000 248.000 C 254.000 248.220,253.640 248.400,253.200 248.400 C 252.760 248.400,252.400 248.580,252.400 248.800 C 252.400 249.020,252.105 249.200,251.744 249.200 C 251.383 249.200,250.849 249.515,250.557 249.900 C 249.931 250.725,249.825 252.400,250.400 252.400 C 250.620 252.400,250.800 252.681,250.800 253.024 C 250.800 253.367,250.941 253.560,251.114 253.453 C 251.287 253.346,251.429 253.592,251.429 254.000 C 251.429 254.408,251.324 254.676,251.195 254.597 C 250.548 254.197,250.086 255.246,249.928 257.477 C 249.831 258.839,249.869 259.881,250.013 259.792 C 250.156 259.704,250.667 260.164,251.148 260.816 C 251.972 261.930,256.523 262.769,255.851 261.683 C 255.744 261.509,255.999 261.340,256.420 261.308 C 256.840 261.277,257.288 261.419,257.416 261.625 C 258.102 262.736,261.200 261.461,261.200 260.069 C 261.200 259.811,261.393 259.600,261.628 259.600 C 261.863 259.600,261.998 259.195,261.928 258.700 C 261.847 258.130,261.543 257.820,261.100 257.856 C 260.485 257.904,260.400 257.505,260.400 254.550 C 260.400 251.005,260.073 250.017,258.400 248.505 C 257.360 247.565,254.000 247.179,254.000 248.000 M255.241 252.919 C 254.920 253.240,254.665 253.222,254.300 252.851 C 253.899 252.444,253.919 252.368,254.400 252.471 C 254.801 252.557,254.964 252.335,254.890 251.800 C 254.786 251.040,254.803 251.037,255.231 251.739 C 255.561 252.277,255.563 252.597,255.241 252.919 M183.314 251.848 C 183.450 251.984,183.292 252.365,182.962 252.695 C 182.267 253.391,181.793 253.116,182.138 252.217 C 182.384 251.577,182.886 251.419,183.314 251.848 M243.600 255.443 C 243.600 258.209,242.863 259.183,241.375 258.386 C 239.850 257.570,239.891 253.200,241.424 253.200 C 242.066 253.200,242.346 253.036,242.175 252.760 C 241.984 252.451,242.156 252.455,242.752 252.774 C 243.459 253.153,243.600 253.596,243.600 255.443 M206.400 255.756 C 206.400 255.842,205.783 255.985,205.028 256.073 C 204.273 256.161,203.744 256.090,203.852 255.916 C 204.045 255.603,206.400 255.455,206.400 255.756 " stroke="none" fill="#0f224a" fill-rule="evenodd"></path><path id="path1" d="M226.829 189.454 C 226.091 190.393,225.999 191.060,225.994 195.554 C 225.986 202.001,226.133 201.800,221.435 201.800 C 216.904 201.800,216.788 201.713,216.616 198.204 C 216.483 195.483,216.117 194.819,214.749 194.806 C 213.823 194.797,213.311 195.560,213.009 197.400 C 212.400 201.110,212.355 201.206,210.866 202.000 C 208.067 203.493,206.879 205.067,206.717 207.500 C 206.669 208.215,206.443 208.803,206.215 208.806 C 205.987 208.809,206.044 208.967,206.343 209.156 C 206.721 209.396,206.751 209.583,206.443 209.774 C 206.193 209.928,206.000 211.178,206.000 212.647 C 206.000 214.279,206.149 215.155,206.400 215.000 C 206.620 214.864,206.800 214.933,206.800 215.153 C 206.800 215.373,206.620 215.664,206.400 215.800 C 206.180 215.936,206.000 216.227,206.000 216.447 C 206.000 216.667,206.203 216.722,206.452 216.568 C 206.728 216.397,206.827 216.505,206.706 216.844 C 206.597 217.150,206.700 217.760,206.934 218.200 C 207.169 218.640,207.414 219.321,207.480 219.713 C 207.545 220.106,207.839 220.826,208.133 221.313 C 208.426 221.801,208.647 222.470,208.624 222.800 C 208.600 223.130,209.080 223.940,209.689 224.600 C 210.298 225.260,210.797 225.941,210.798 226.114 C 210.802 226.709,216.602 232.024,217.500 232.255 C 217.995 232.382,218.400 232.647,218.400 232.843 C 218.400 233.040,218.672 233.200,219.005 233.200 C 219.645 233.200,221.247 233.995,221.622 234.498 C 221.745 234.662,222.375 234.830,223.022 234.871 C 223.670 234.912,224.411 235.103,224.669 235.295 C 225.361 235.813,234.125 235.775,235.105 235.251 C 235.734 234.914,235.984 234.927,236.136 235.303 C 236.295 235.697,236.343 235.696,236.368 235.300 C 236.386 235.025,236.636 234.800,236.925 234.800 C 237.214 234.800,238.195 234.440,239.106 234.000 C 240.016 233.560,240.950 233.200,241.181 233.200 C 241.411 233.200,241.600 233.040,241.600 232.843 C 241.600 232.647,242.048 232.374,242.595 232.237 C 243.789 231.937,250.000 225.925,250.000 225.069 C 250.000 224.738,250.135 224.407,250.300 224.333 C 250.836 224.095,252.400 220.865,252.400 219.997 C 252.400 219.533,252.550 219.245,252.733 219.359 C 253.083 219.575,253.184 219.051,253.209 216.900 C 253.218 216.185,253.399 215.600,253.612 215.600 C 253.825 215.600,253.997 215.285,253.994 214.900 C 253.989 214.302,253.931 214.287,253.600 214.800 C 253.258 215.329,253.212 215.326,253.206 214.780 C 253.203 214.439,253.425 213.918,253.700 213.621 C 253.975 213.325,254.005 213.191,253.767 213.324 C 253.528 213.456,253.333 213.311,253.333 213.000 C 253.333 212.689,253.483 212.528,253.667 212.641 C 253.850 212.755,254.000 212.477,254.000 212.024 C 254.000 211.571,253.850 211.200,253.667 211.200 C 253.483 211.200,253.333 210.930,253.333 210.600 C 253.333 210.270,253.483 210.000,253.667 210.000 C 253.850 210.000,254.000 209.719,254.000 209.376 C 254.000 209.033,253.820 208.864,253.600 209.000 C 253.380 209.136,253.200 208.982,253.200 208.657 C 253.200 208.332,253.425 207.984,253.700 207.883 C 254.100 207.737,254.100 207.594,253.700 207.170 C 253.425 206.879,253.200 206.136,253.200 205.520 C 253.200 204.904,253.020 204.400,252.800 204.400 C 252.580 204.400,252.400 203.961,252.400 203.424 C 252.400 202.887,252.220 202.336,252.000 202.200 C 251.780 202.064,251.600 201.593,251.600 201.153 C 251.600 200.713,251.420 200.464,251.200 200.600 C 250.980 200.736,250.799 200.612,250.797 200.324 C 250.795 199.846,248.492 198.000,247.898 198.000 C 247.760 198.000,247.591 198.758,247.523 199.684 C 247.378 201.670,246.897 201.898,242.726 201.960 C 239.336 202.011,238.141 201.549,237.419 199.909 C 237.101 199.189,236.084 196.825,235.158 194.656 C 232.869 189.293,232.074 188.400,229.593 188.400 C 227.979 188.400,227.521 188.575,226.829 189.454 M180.080 190.480 C 179.445 191.115,179.471 193.129,180.139 195.050 C 182.032 200.490,181.319 202.000,176.860 202.000 C 172.405 202.000,171.681 201.284,170.995 196.200 C 170.602 193.285,170.459 193.200,165.977 193.200 C 160.042 193.200,159.041 193.801,158.596 197.632 C 158.251 200.605,157.529 201.442,154.975 201.825 C 152.612 202.179,150.000 204.546,150.000 206.333 C 150.000 206.957,149.875 207.592,149.722 207.744 C 149.247 208.219,149.265 210.984,149.745 211.294 C 150.021 211.472,150.036 211.590,149.785 211.594 C 149.557 211.597,149.341 212.325,149.306 213.211 C 149.270 214.097,149.394 214.728,149.579 214.613 C 149.765 214.498,149.929 215.384,149.943 216.583 C 149.958 217.781,150.137 219.085,150.341 219.481 C 150.545 219.876,151.137 221.100,151.656 222.200 C 152.175 223.300,152.735 224.260,152.900 224.333 C 153.065 224.407,153.200 224.722,153.200 225.033 C 153.200 225.345,153.380 225.600,153.600 225.600 C 153.820 225.600,154.000 225.794,154.000 226.030 C 154.000 226.665,159.389 231.879,160.364 232.189 C 160.824 232.335,161.200 232.652,161.200 232.894 C 161.200 233.135,161.312 233.221,161.449 233.085 C 161.586 232.948,162.594 233.290,163.689 233.845 C 164.801 234.409,165.549 234.622,165.382 234.327 C 165.141 233.903,165.188 233.898,165.621 234.300 C 165.918 234.575,166.469 234.800,166.847 234.800 C 167.224 234.800,167.597 234.991,167.675 235.225 C 167.846 235.739,177.245 235.866,178.055 235.366 C 178.354 235.181,178.869 235.009,179.200 234.983 C 180.981 234.845,181.226 234.766,181.000 234.400 C 180.788 234.057,182.269 233.778,183.330 233.963 C 183.511 233.994,183.545 233.835,183.406 233.610 C 183.267 233.384,183.489 233.200,183.901 233.200 C 184.312 233.200,184.998 232.885,185.425 232.500 C 185.851 232.115,186.875 231.488,187.700 231.106 C 188.701 230.644,189.200 230.147,189.200 229.614 C 189.200 229.102,189.548 228.728,190.171 228.572 C 191.345 228.277,192.477 227.105,192.317 226.350 C 192.253 226.048,192.425 225.845,192.700 225.900 C 192.975 225.955,193.200 225.651,193.200 225.224 C 193.200 224.797,193.380 224.336,193.600 224.200 C 193.820 224.064,194.000 223.614,194.000 223.200 C 194.000 222.786,194.208 222.319,194.462 222.162 C 194.748 221.985,194.815 222.052,194.638 222.338 C 194.205 223.039,194.629 222.890,195.251 222.123 C 195.720 221.546,195.717 221.497,195.232 221.789 C 194.801 222.049,194.728 221.963,194.932 221.433 C 195.079 221.049,195.200 220.550,195.200 220.324 C 195.200 220.099,195.452 220.011,195.761 220.130 C 196.211 220.303,196.324 219.742,196.334 217.281 C 196.341 215.476,196.521 214.160,196.773 214.076 C 197.299 213.900,197.347 209.111,196.829 208.580 C 196.625 208.371,196.384 207.660,196.294 207.000 C 195.788 203.317,194.578 202.359,189.947 201.975 C 185.625 201.617,185.614 201.606,185.606 197.526 C 185.595 192.078,182.469 188.091,180.080 190.480 M230.974 204.042 C 230.852 204.239,231.123 204.400,231.576 204.400 C 232.029 204.400,232.400 204.580,232.400 204.800 C 232.400 205.020,232.683 205.200,233.029 205.200 C 233.374 205.200,233.914 205.457,234.229 205.771 C 234.543 206.086,234.800 206.626,234.800 206.971 C 234.800 207.317,234.980 207.600,235.200 207.600 C 235.420 207.600,235.600 208.129,235.600 208.776 C 235.600 209.423,235.420 210.064,235.200 210.200 C 234.980 210.336,234.800 210.820,234.800 211.277 C 234.800 212.238,233.291 213.704,232.687 213.330 C 232.461 213.190,232.393 213.265,232.536 213.496 C 232.679 213.727,232.508 214.027,232.156 214.161 C 231.805 214.296,231.614 214.660,231.733 214.970 C 231.852 215.280,231.691 215.633,231.375 215.754 C 230.680 216.021,230.621 217.261,231.272 217.912 C 231.860 218.500,230.968 220.400,230.104 220.400 C 228.929 220.400,228.400 219.284,228.400 216.805 C 228.400 215.272,228.250 214.445,228.000 214.600 C 227.780 214.736,227.600 214.477,227.600 214.024 C 227.600 213.571,227.448 213.200,227.263 213.200 C 226.571 213.200,225.164 209.763,225.262 208.313 C 225.316 207.510,225.459 206.863,225.580 206.874 C 226.438 206.955,226.855 206.721,226.678 206.259 C 226.476 205.733,227.130 205.019,228.563 204.200 C 229.457 203.689,231.265 203.571,230.974 204.042 M162.681 212.033 C 162.625 212.836,162.386 213.199,161.913 213.199 C 161.434 213.200,161.303 212.997,161.482 212.531 C 161.668 212.045,161.574 211.925,161.136 212.092 C 160.316 212.407,160.339 211.141,161.164 210.533 C 162.056 209.876,162.782 210.593,162.681 212.033 M173.745 210.834 C 174.576 210.723,174.800 210.883,174.800 211.587 C 174.800 212.159,174.617 212.305,174.131 212.118 C 173.623 211.923,173.523 212.023,173.718 212.531 C 173.880 212.954,173.775 213.200,173.432 213.200 C 173.133 213.200,172.914 212.885,172.944 212.500 C 172.979 212.061,172.739 211.821,172.300 211.856 C 171.915 211.886,171.600 211.751,171.600 211.556 C 171.600 211.360,171.870 211.200,172.200 211.200 C 172.530 211.200,172.803 210.885,172.806 210.500 C 172.811 209.963,172.891 209.925,173.151 210.334 C 173.337 210.628,173.604 210.853,173.745 210.834 M185.911 211.624 C 186.105 212.646,184.199 213.457,183.425 212.683 C 183.081 212.339,182.800 211.763,182.800 211.404 C 182.800 210.505,185.739 210.713,185.911 211.624 " stroke="none" fill="#f4720d" fill-rule="evenodd"></path><path id="path2" d="M123.768 147.934 C 124.019 148.352,123.711 148.444,122.344 148.359 C 121.141 148.284,120.632 148.402,120.704 148.737 C 120.761 149.004,120.536 149.327,120.204 149.454 C 119.506 149.722,119.305 155.200,119.992 155.200 C 120.208 155.200,120.488 155.613,120.615 156.118 C 120.742 156.623,121.214 157.266,121.665 157.548 C 122.283 157.934,122.409 157.939,122.180 157.568 C 121.968 157.224,122.042 157.179,122.429 157.418 C 122.733 157.606,124.107 157.797,125.484 157.844 C 129.434 157.978,129.134 156.182,129.133 179.690 C 129.132 203.045,128.995 202.000,132.063 202.000 C 133.168 202.000,134.029 202.205,134.167 202.500 C 134.353 202.900,134.447 202.900,134.633 202.500 C 134.769 202.209,135.616 202.000,136.657 202.000 C 137.749 202.000,138.351 202.156,138.200 202.400 C 138.064 202.620,138.040 202.800,138.147 202.800 C 139.446 202.800,139.600 200.322,139.600 179.371 C 139.600 157.171,139.613 156.954,140.848 157.719 C 141.417 158.071,141.701 158.080,141.912 157.751 C 142.094 157.468,143.558 157.315,145.870 157.338 C 148.043 157.359,149.445 157.526,149.308 157.749 C 149.181 157.955,149.284 157.995,149.538 157.838 C 149.792 157.681,150.000 157.203,150.000 156.776 C 150.000 156.349,150.176 156.000,150.390 156.000 C 150.641 156.000,150.644 155.643,150.400 155.000 C 150.156 154.357,150.159 154.000,150.410 154.000 C 150.624 154.000,150.800 153.809,150.800 153.576 C 150.800 153.343,150.659 153.240,150.486 153.347 C 150.313 153.454,150.135 152.702,150.090 151.676 C 149.950 148.446,150.056 148.471,136.460 148.437 C 127.628 148.415,124.536 148.282,124.069 147.904 C 123.561 147.493,123.506 147.499,123.768 147.934 M262.388 148.132 C 262.272 148.256,261.427 148.401,260.512 148.455 C 259.597 148.509,258.938 148.699,259.047 148.877 C 259.157 149.055,258.787 149.200,258.224 149.200 C 257.661 149.200,257.200 149.380,257.200 149.600 C 257.200 149.820,256.913 150.000,256.563 150.000 C 256.212 150.000,255.831 150.360,255.716 150.800 C 255.601 151.240,255.250 151.600,254.935 151.600 C 254.172 151.600,252.400 153.405,252.400 154.182 C 252.400 154.522,252.220 154.800,252.000 154.800 C 251.780 154.800,251.600 155.160,251.600 155.600 C 251.600 156.040,251.420 156.400,251.200 156.400 C 250.980 156.400,250.800 156.850,250.800 157.400 C 250.800 157.950,250.620 158.400,250.400 158.400 C 250.180 158.400,249.982 159.525,249.960 160.900 C 249.930 162.758,249.838 163.143,249.600 162.400 C 249.408 161.800,249.264 163.922,249.240 167.700 C 249.215 171.660,249.349 174.000,249.600 174.000 C 249.820 174.000,250.000 174.821,250.000 175.824 C 250.000 176.937,249.844 177.551,249.600 177.400 C 249.380 177.264,249.200 177.534,249.200 178.000 C 249.200 178.466,249.380 178.736,249.600 178.600 C 249.838 178.453,250.000 178.929,250.000 179.776 C 250.000 180.559,249.820 181.200,249.600 181.200 C 249.380 181.200,249.200 182.010,249.200 183.000 C 249.200 183.990,249.361 184.800,249.558 184.800 C 249.755 184.800,250.003 185.475,250.109 186.300 C 251.201 194.777,253.397 198.444,258.940 201.046 C 260.293 201.681,261.515 202.358,261.655 202.550 C 261.795 202.743,262.739 202.923,263.754 202.950 C 264.769 202.978,265.602 203.180,265.606 203.400 C 265.609 203.620,265.745 203.591,265.907 203.336 C 266.070 203.081,267.102 202.820,268.201 202.755 C 270.129 202.642,273.200 201.396,273.200 200.726 C 273.200 200.547,273.560 200.400,274.000 200.400 C 274.452 200.400,274.800 200.133,274.800 199.787 C 274.800 199.451,275.115 199.054,275.499 198.907 C 276.528 198.512,278.000 196.929,278.000 196.218 C 278.000 195.878,278.180 195.600,278.400 195.600 C 278.620 195.600,278.800 195.060,278.800 194.400 C 278.800 193.740,278.980 193.200,279.200 193.200 C 279.422 193.200,279.600 192.133,279.600 190.800 C 279.600 189.467,279.778 188.400,280.000 188.400 C 280.258 188.400,280.400 183.867,280.400 175.600 C 280.400 167.333,280.258 162.800,280.000 162.800 C 279.780 162.800,279.600 161.900,279.600 160.800 C 279.600 159.700,279.420 158.800,279.200 158.800 C 278.980 158.800,278.800 158.260,278.800 157.600 C 278.800 156.940,278.620 156.400,278.400 156.400 C 278.180 156.400,278.000 156.040,278.000 155.600 C 278.000 155.160,277.864 154.800,277.698 154.800 C 277.531 154.800,277.169 154.289,276.893 153.665 C 276.617 153.041,275.898 152.276,275.295 151.965 C 274.693 151.654,273.723 150.905,273.140 150.300 C 272.535 149.673,271.647 149.200,271.073 149.200 C 270.519 149.200,270.007 149.021,269.933 148.802 C 269.791 148.379,262.746 147.753,262.388 148.132 M159.600 150.400 C 159.600 151.500,159.420 152.400,159.200 152.400 C 158.980 152.400,158.800 152.850,158.800 153.400 C 158.800 153.950,158.620 154.400,158.400 154.400 C 158.180 154.400,158.000 154.814,158.000 155.320 C 158.000 155.826,157.804 156.436,157.565 156.675 C 157.291 156.949,157.274 157.198,157.520 157.350 C 157.908 157.590,157.393 159.573,156.635 160.762 C 156.373 161.172,156.418 161.236,156.800 161.000 C 157.182 160.764,157.227 160.828,156.965 161.238 C 156.337 162.223,155.682 164.400,156.015 164.400 C 156.421 164.400,155.670 167.207,155.058 167.977 C 154.695 168.435,154.716 168.484,155.162 168.215 C 155.582 167.962,155.633 168.018,155.365 168.438 C 154.481 169.823,154.028 171.770,154.517 172.081 C 154.889 172.317,154.885 172.389,154.500 172.394 C 154.175 172.398,154.000 173.030,154.000 174.200 C 154.000 175.190,153.820 176.000,153.600 176.000 C 153.380 176.000,153.200 176.810,153.200 177.800 C 153.200 178.970,153.025 179.602,152.700 179.606 C 152.367 179.610,152.400 179.742,152.800 180.000 C 153.200 180.258,153.233 180.390,152.900 180.394 C 152.625 180.397,152.400 180.839,152.400 181.376 C 152.400 181.913,152.220 182.464,152.000 182.600 C 151.780 182.736,151.600 183.917,151.600 185.224 C 151.600 186.677,151.430 187.600,151.162 187.600 C 150.868 187.600,150.814 188.247,150.997 189.580 C 151.190 190.979,151.036 192.535,150.475 194.880 C 148.634 202.578,148.997 202.973,155.520 200.367 C 156.655 199.913,157.979 197.105,157.991 195.127 C 158.006 192.696,159.489 191.947,164.787 191.696 C 171.478 191.379,171.106 191.103,172.456 197.384 C 173.200 200.849,173.851 201.351,177.142 201.003 C 180.464 200.651,180.307 200.895,179.414 197.483 C 178.999 195.897,178.610 192.919,178.550 190.865 C 178.489 188.811,178.279 186.921,178.082 186.665 C 177.339 185.699,176.700 182.336,176.935 180.624 C 177.068 179.653,177.012 178.801,176.810 178.729 C 176.609 178.658,176.406 177.378,176.359 175.884 C 176.311 174.391,176.122 173.075,175.936 172.961 C 175.751 172.846,175.600 172.313,175.600 171.776 C 175.600 171.239,175.420 170.800,175.200 170.800 C 174.980 170.800,174.800 170.609,174.800 170.376 C 174.800 170.143,175.025 170.088,175.300 170.253 C 175.693 170.489,175.697 170.426,175.321 169.961 C 175.058 169.636,174.797 168.600,174.741 167.659 C 174.686 166.718,174.496 165.860,174.320 165.751 C 174.144 165.642,174.000 165.023,174.000 164.376 C 174.000 163.705,173.785 163.197,173.500 163.194 C 173.132 163.189,173.143 163.097,173.543 162.844 C 173.921 162.604,173.951 162.417,173.643 162.226 C 173.399 162.076,173.200 161.243,173.200 160.376 C 173.200 159.509,173.020 158.800,172.800 158.800 C 172.580 158.800,172.400 158.260,172.400 157.600 C 172.400 156.940,172.239 156.400,172.042 156.400 C 171.845 156.400,171.575 155.680,171.442 154.800 C 171.309 153.920,171.095 152.518,170.966 151.685 C 170.837 150.852,170.372 149.727,169.931 149.185 C 169.491 148.643,169.234 148.404,169.360 148.653 C 169.604 149.135,167.406 149.139,166.925 148.658 C 166.783 148.516,165.077 148.400,163.133 148.400 L 159.600 148.400 159.600 150.400 M185.853 149.141 C 184.829 150.273,184.718 180.641,185.730 182.887 C 186.497 184.590,186.611 187.899,185.953 189.344 C 185.605 190.107,185.644 190.713,186.126 192.063 C 186.467 193.018,186.836 195.219,186.946 196.953 C 187.056 198.687,187.293 200.253,187.473 200.432 C 188.118 201.074,195.524 201.700,202.137 201.672 C 209.864 201.639,210.602 201.409,211.003 198.903 C 211.135 198.076,211.414 197.130,211.624 196.800 C 212.950 194.712,212.830 194.644,207.338 194.375 C 203.969 194.210,202.641 193.996,202.370 193.575 C 202.050 193.078,201.942 193.081,201.570 193.600 C 201.245 194.052,201.089 194.076,200.936 193.700 C 200.825 193.425,200.288 193.200,199.743 193.200 C 199.198 193.200,198.850 193.358,198.969 193.550 C 199.304 194.091,196.076 194.469,195.187 193.993 C 194.184 193.456,194.049 189.608,195.000 188.657 C 195.729 187.928,195.923 150.647,195.200 150.200 C 194.980 150.064,194.800 149.603,194.800 149.176 C 194.800 148.740,194.527 148.400,194.176 148.400 C 193.825 148.400,193.671 148.592,193.825 148.840 C 194.022 149.160,193.872 149.160,193.275 148.840 C 191.833 148.068,186.633 148.280,185.853 149.141 M217.200 149.767 C 217.200 150.518,216.993 151.202,216.739 151.287 C 216.402 151.399,216.300 154.895,216.359 164.320 C 216.414 173.101,216.306 177.200,216.020 177.200 C 215.293 177.200,215.552 180.950,216.400 182.706 C 217.298 184.563,217.461 188.042,216.769 190.537 C 216.406 191.845,216.450 192.193,217.071 192.878 C 217.628 193.493,217.834 194.500,217.944 197.142 C 218.113 201.223,217.920 201.035,221.746 200.869 L 224.775 200.738 225.036 199.347 C 225.180 198.582,225.185 197.109,225.048 196.074 C 224.910 195.039,225.000 192.844,225.246 191.196 C 225.492 189.548,225.669 187.363,225.637 186.340 C 225.547 183.380,228.131 179.692,229.641 180.625 C 230.211 180.978,232.000 184.995,232.000 185.922 C 232.000 186.307,232.720 187.580,233.600 188.751 C 234.480 189.922,235.200 191.065,235.200 191.290 C 235.200 191.747,236.757 195.517,238.239 198.649 C 239.178 200.631,239.275 200.707,241.218 200.965 C 245.671 201.555,246.546 200.847,245.394 197.584 C 245.033 196.561,244.889 195.332,245.037 194.542 C 245.236 193.480,245.081 192.974,244.253 191.990 C 241.767 189.036,238.973 181.848,240.042 181.160 C 240.458 180.892,240.480 180.722,240.128 180.494 C 239.709 180.222,237.200 175.802,237.200 175.336 C 237.200 175.235,237.425 175.282,237.700 175.441 C 237.975 175.599,237.795 175.283,237.300 174.739 C 236.190 173.518,236.124 171.516,237.146 170.062 C 237.556 169.478,238.132 168.325,238.426 167.500 C 238.720 166.675,239.076 166.000,239.217 166.000 C 239.359 166.000,239.905 165.145,240.432 164.100 C 240.958 163.055,241.495 162.110,241.624 162.000 C 242.044 161.642,242.795 159.576,242.890 158.518 C 242.914 158.252,243.056 158.111,243.206 158.204 C 243.357 158.297,243.708 157.884,243.986 157.286 C 244.265 156.689,244.652 155.887,244.847 155.505 C 245.041 155.123,245.200 154.538,245.200 154.205 C 245.200 153.872,245.380 153.600,245.600 153.600 C 245.820 153.600,246.000 153.330,246.000 153.000 C 246.000 152.670,246.180 152.400,246.400 152.400 C 246.620 152.400,246.800 151.680,246.800 150.800 C 246.800 149.644,246.633 149.200,246.200 149.200 C 245.870 149.200,245.600 149.020,245.600 148.800 C 245.600 148.563,244.141 148.400,242.024 148.400 C 240.057 148.400,238.336 148.580,238.200 148.800 C 238.064 149.020,237.623 149.200,237.219 149.200 C 236.459 149.200,235.913 150.028,235.779 151.383 C 235.736 151.814,235.498 152.234,235.251 152.316 C 235.003 152.399,234.800 152.812,234.800 153.233 C 234.800 153.655,234.648 154.000,234.463 154.000 C 234.277 154.000,233.692 154.855,233.163 155.900 C 232.633 156.945,232.065 157.860,231.900 157.933 C 231.735 158.007,231.600 158.458,231.600 158.937 C 231.600 159.416,231.240 160.032,230.800 160.307 C 230.360 160.582,229.994 161.210,229.987 161.703 C 229.974 162.608,229.072 164.138,228.744 163.811 C 228.647 163.714,228.542 163.974,228.511 164.390 C 228.479 164.806,228.127 165.648,227.727 166.262 L 227.000 167.377 226.858 165.388 C 226.748 163.848,226.638 163.580,226.371 164.200 C 226.150 164.713,226.094 164.140,226.215 162.600 C 226.873 154.230,226.899 153.200,226.455 153.200 C 225.840 153.200,225.875 152.125,226.500 151.833 C 226.900 151.647,226.900 151.553,226.500 151.367 C 226.225 151.238,226.000 150.893,226.000 150.600 C 226.000 150.307,226.225 149.974,226.500 149.860 C 226.803 149.735,226.645 149.546,226.100 149.380 C 225.605 149.230,225.200 148.948,225.200 148.753 C 225.200 148.559,223.400 148.400,221.200 148.400 L 217.200 148.400 217.200 149.767 M264.104 158.000 C 264.293 158.000,264.336 157.820,264.200 157.600 C 264.059 157.372,264.404 157.200,265.000 157.200 C 265.596 157.200,265.941 157.372,265.800 157.600 C 265.664 157.820,265.743 158.000,265.976 158.000 C 266.209 158.000,266.400 157.777,266.400 157.504 C 266.400 157.231,266.850 157.493,267.400 158.087 C 267.950 158.680,268.400 159.364,268.400 159.606 C 268.400 159.849,268.550 159.955,268.733 159.841 C 268.917 159.728,269.092 159.852,269.123 160.118 C 269.155 160.383,269.336 161.455,269.527 162.500 C 269.717 163.545,269.722 164.400,269.537 164.400 C 269.351 164.400,269.200 169.890,269.200 176.600 C 269.200 186.090,269.311 188.801,269.700 188.806 C 270.033 188.810,270.000 188.942,269.600 189.200 C 269.270 189.413,269.145 189.591,269.323 189.594 C 270.085 189.608,267.596 193.187,266.692 193.376 C 266.421 193.433,265.861 193.625,265.447 193.803 C 264.999 193.995,264.391 193.937,263.947 193.660 C 263.366 193.297,263.199 193.305,263.194 193.697 C 263.190 194.034,263.091 194.059,262.894 193.771 C 262.732 193.535,262.285 193.225,261.900 193.083 C 261.515 192.941,261.200 192.564,261.200 192.246 C 261.200 191.927,261.025 191.607,260.812 191.533 C 260.598 191.460,260.368 191.040,260.300 190.600 C 260.232 190.160,260.092 189.620,259.988 189.400 C 259.885 189.180,259.890 183.015,260.000 175.700 C 260.131 166.968,260.063 162.397,259.800 162.394 C 259.580 162.390,259.624 162.245,259.898 162.071 C 260.172 161.898,260.435 161.283,260.483 160.706 C 260.531 160.130,260.691 159.733,260.839 159.824 C 260.988 159.916,261.206 159.620,261.325 159.166 C 261.444 158.712,261.912 158.244,262.366 158.125 C 262.831 158.003,263.080 157.711,262.937 157.455 C 262.788 157.188,262.906 157.207,263.221 157.500 C 263.518 157.775,263.915 158.000,264.104 158.000 M279.876 165.100 C 279.775 165.485,279.693 165.170,279.693 164.400 C 279.693 163.630,279.775 163.315,279.876 163.700 C 279.976 164.085,279.976 164.715,279.876 165.100 M269.898 177.300 C 269.825 179.335,269.766 177.670,269.766 173.600 C 269.766 169.530,269.825 167.865,269.898 169.900 C 269.971 171.935,269.971 175.265,269.898 177.300 M249.882 169.700 C 249.787 170.195,249.709 169.790,249.709 168.800 C 249.709 167.810,249.787 167.405,249.882 167.900 C 249.978 168.395,249.978 169.205,249.882 169.700 M165.449 168.974 C 165.780 169.690,165.780 170.070,165.449 170.430 C 165.113 170.795,165.125 170.847,165.500 170.635 C 165.874 170.424,166.000 170.918,166.000 172.600 C 166.000 173.996,166.151 174.754,166.400 174.600 C 166.642 174.451,166.800 174.996,166.800 175.976 C 166.800 176.869,166.980 177.600,167.200 177.600 C 167.420 177.600,167.600 177.971,167.600 178.424 C 167.600 178.968,167.431 179.150,167.100 178.962 C 166.825 178.805,167.062 179.199,167.627 179.838 C 168.659 181.005,169.921 185.012,169.416 185.517 C 169.026 185.908,163.440 186.134,161.797 185.826 C 160.149 185.517,160.033 184.889,161.200 182.600 C 161.640 181.737,162.000 180.608,162.000 180.092 C 162.000 179.568,162.177 179.262,162.400 179.400 C 162.650 179.554,162.800 178.737,162.800 177.224 C 162.800 175.875,162.977 174.800,163.200 174.800 C 163.420 174.800,163.600 174.248,163.600 173.574 C 163.600 172.899,163.798 171.978,164.040 171.525 C 164.360 170.928,164.360 170.778,164.040 170.975 C 163.792 171.129,163.600 170.975,163.600 170.624 C 163.600 170.281,163.780 170.000,164.000 170.000 C 164.220 170.000,164.379 169.865,164.353 169.700 C 164.081 167.983,164.776 167.523,165.449 168.974 M279.898 179.300 C 279.823 181.115,279.763 179.630,279.763 176.000 C 279.763 172.370,279.823 170.885,279.898 172.700 C 279.972 174.515,279.972 177.485,279.898 179.300 M249.876 173.100 C 249.775 173.485,249.693 173.170,249.693 172.400 C 249.693 171.630,249.775 171.315,249.876 171.700 C 249.976 172.085,249.976 172.715,249.876 173.100 M269.887 187.495 C 269.795 188.103,269.717 187.700,269.714 186.600 C 269.711 185.500,269.787 185.003,269.882 185.495 C 269.977 185.986,269.979 186.886,269.887 187.495 " stroke="none" fill="#448bdf" fill-rule="evenodd"></path><path id="path3" d="M119.600 156.600 C 119.600 156.930,119.870 157.200,120.200 157.200 C 120.530 157.200,120.800 156.930,120.800 156.600 C 120.800 156.270,120.530 156.000,120.200 156.000 C 119.870 156.000,119.600 156.270,119.600 156.600 M269.200 163.200 C 269.200 163.860,269.349 164.400,269.531 164.400 C 269.713 164.400,269.782 163.860,269.685 163.200 C 269.588 162.540,269.440 162.000,269.355 162.000 C 269.270 162.000,269.200 162.540,269.200 163.200 M269.761 172.800 C 269.761 176.210,269.822 177.605,269.897 175.900 C 269.972 174.195,269.972 171.405,269.897 169.700 C 269.822 167.995,269.761 169.390,269.761 172.800 M166.800 180.004 C 166.800 180.226,167.160 180.716,167.600 181.093 C 168.169 181.580,168.400 182.273,168.400 183.489 L 168.400 185.200 164.800 185.200 C 161.227 185.200,161.200 185.193,161.200 184.200 C 161.200 183.569,161.426 183.200,161.813 183.200 C 162.149 183.200,162.529 182.930,162.655 182.600 C 162.782 182.270,163.136 182.000,163.443 182.000 C 163.749 182.000,164.000 181.820,164.000 181.600 C 164.000 180.801,162.018 181.201,161.415 182.121 C 159.302 185.346,160.401 186.229,166.170 185.937 C 169.805 185.754,169.809 185.751,169.169 183.124 C 168.552 180.592,166.800 178.285,166.800 180.004 M177.067 179.867 C 175.597 181.337,178.352 188.400,180.395 188.400 C 180.750 188.400,181.253 188.613,181.513 188.873 C 181.774 189.134,182.109 189.225,182.258 189.076 C 182.641 188.693,181.205 187.203,180.438 187.187 C 179.285 187.163,178.134 185.810,177.885 184.188 C 177.751 183.315,177.521 182.195,177.374 181.700 C 177.174 181.027,177.270 180.800,177.753 180.800 C 178.109 180.800,178.400 180.530,178.400 180.200 C 178.400 179.591,177.554 179.379,177.067 179.867 M182.806 181.000 C 183.119 181.440,183.808 182.170,184.337 182.622 C 185.174 183.337,185.301 183.794,185.310 186.129 C 185.322 189.101,185.312 189.127,184.086 189.314 C 182.764 189.516,182.647 189.877,183.830 190.104 C 185.523 190.427,186.400 189.235,186.400 186.608 C 186.400 183.684,185.406 181.200,184.237 181.200 C 183.754 181.200,183.108 180.975,182.799 180.700 C 182.331 180.282,182.332 180.331,182.806 181.000 M228.196 180.701 C 225.433 182.750,224.855 187.628,227.380 187.587 C 228.166 187.574,228.161 187.541,227.256 186.787 C 226.181 185.891,226.269 184.946,227.643 182.617 C 228.546 181.087,229.491 180.779,229.848 181.900 C 229.970 182.285,230.399 183.442,230.801 184.470 C 231.414 186.041,231.440 186.376,230.966 186.558 C 230.121 186.882,230.283 187.600,231.200 187.600 C 232.367 187.600,232.232 185.521,230.887 182.800 C 229.840 180.681,229.052 180.066,228.196 180.701 M239.726 182.619 C 240.015 184.400,243.376 191.273,244.420 192.218 C 244.849 192.606,245.200 193.166,245.200 193.462 C 245.200 193.758,245.380 194.000,245.600 194.000 C 245.820 194.000,246.000 194.322,246.000 194.715 C 246.000 195.154,246.324 195.454,246.840 195.493 C 247.302 195.528,247.917 195.881,248.207 196.278 C 248.894 197.217,249.367 196.719,249.037 195.404 C 248.886 194.804,248.346 194.208,247.748 193.980 C 247.075 193.724,246.798 193.383,246.947 192.994 C 247.097 192.604,246.927 192.400,246.452 192.400 C 246.054 192.400,245.523 191.950,245.273 191.400 C 245.022 190.850,244.588 190.397,244.309 190.393 C 244.029 190.389,243.377 189.444,242.860 188.293 C 242.343 187.142,241.547 185.430,241.091 184.489 C 240.458 183.181,240.373 182.667,240.731 182.309 C 241.437 181.603,241.298 181.200,240.348 181.200 C 239.595 181.200,239.522 181.366,239.726 182.619 M215.474 182.440 C 215.353 182.902,215.074 183.169,214.855 183.034 C 214.635 182.898,214.351 182.955,214.224 183.161 C 214.097 183.367,214.535 183.654,215.197 183.799 L 216.400 184.064 216.400 186.983 C 216.400 188.976,216.225 190.047,215.848 190.360 C 215.545 190.612,215.194 191.328,215.070 191.952 C 214.743 193.586,205.375 194.215,204.278 192.676 C 204.018 192.311,203.892 192.317,203.736 192.700 C 203.625 192.975,203.278 193.200,202.967 193.200 C 201.638 193.200,202.546 193.969,204.100 194.160 C 207.346 194.558,213.200 194.698,213.200 194.377 C 213.200 194.199,213.539 193.946,213.952 193.815 C 216.799 192.912,218.248 187.006,216.595 183.049 C 215.892 181.368,215.771 181.302,215.474 182.440 M248.934 185.300 C 248.524 185.953,248.740 187.179,249.440 188.179 C 249.748 188.618,250.000 189.580,250.000 190.315 C 250.000 193.848,254.659 200.379,257.890 201.373 C 258.379 201.524,259.134 202.098,259.567 202.649 C 260.211 203.467,260.634 203.625,261.878 203.509 C 263.150 203.391,263.269 203.310,262.600 203.013 C 262.160 202.818,261.710 202.555,261.600 202.429 C 261.490 202.303,260.293 201.681,258.940 201.046 C 253.397 198.444,251.201 194.777,250.109 186.300 C 249.912 184.767,249.492 184.410,248.934 185.300 M194.643 189.033 C 193.417 192.226,194.770 194.606,197.556 194.161 C 199.698 193.818,199.390 192.797,197.232 193.086 C 195.418 193.330,194.638 191.517,195.797 189.749 C 196.576 188.560,196.557 188.400,195.643 188.400 C 195.226 188.400,194.776 188.685,194.643 189.033 M149.859 189.637 C 149.284 190.459,149.277 190.611,149.804 190.906 C 150.419 191.250,150.269 194.100,149.588 195.000 C 149.422 195.220,149.192 196.210,149.078 197.200 C 148.964 198.190,148.742 199.505,148.584 200.123 C 148.363 200.992,148.490 201.425,149.149 202.038 C 149.617 202.474,150.012 203.139,150.027 203.516 C 150.047 204.028,150.168 203.964,150.506 203.261 C 150.892 202.458,150.826 202.223,150.055 201.641 L 149.153 200.961 150.030 196.980 C 151.533 190.164,151.468 187.341,149.859 189.637 M155.600 200.400 C 155.115 200.714,155.172 200.789,155.900 200.794 C 156.395 200.797,156.800 200.620,156.800 200.400 C 156.800 199.899,156.376 199.899,155.600 200.400 M199.235 201.884 C 197.684 202.187,196.247 204.400,197.600 204.400 C 197.820 204.400,198.135 204.400,198.300 204.400 C 198.465 204.400,198.623 204.220,198.650 204.000 C 198.678 203.780,198.722 203.449,198.750 203.264 C 198.959 201.860,205.926 201.431,206.284 202.800 C 206.571 203.899,207.286 203.814,207.128 202.700 C 206.998 201.787,202.240 201.295,199.235 201.884 M186.000 232.113 C 184.791 233.095,184.077 234.205,185.041 233.605 C 185.503 233.317,186.090 232.748,186.344 232.341 C 186.881 231.482,186.824 231.444,186.000 232.113 M204.500 255.876 C 204.885 255.976,205.515 255.976,205.900 255.876 C 206.285 255.775,205.970 255.693,205.200 255.693 C 204.430 255.693,204.115 255.775,204.500 255.876 " stroke="none" fill="#123c75" fill-rule="evenodd"></path><path id="path4" d="M121.791 147.985 C 122.092 148.473,123.864 148.544,124.151 148.080 C 124.259 147.904,123.715 147.717,122.941 147.665 C 122.052 147.605,121.629 147.723,121.791 147.985 M148.971 149.009 C 149.793 149.630,150.252 149.532,149.816 148.827 C 149.671 148.592,149.248 148.406,148.876 148.413 C 148.283 148.424,148.294 148.497,148.971 149.009 M166.904 148.637 C 167.287 149.020,169.569 149.174,169.781 148.831 C 169.875 148.678,169.203 148.509,168.288 148.455 C 167.373 148.401,166.750 148.483,166.904 148.637 M245.600 148.800 C 245.600 149.020,245.870 149.200,246.200 149.200 C 246.533 149.200,246.800 149.556,246.800 150.000 C 246.800 150.440,246.980 150.800,247.200 150.800 C 247.794 150.800,247.684 149.627,247.029 148.971 C 246.368 148.310,245.600 148.218,245.600 148.800 M216.667 149.067 C 216.248 149.485,216.355 151.200,216.800 151.200 C 217.020 151.200,217.200 150.660,217.200 150.000 C 217.200 148.757,217.119 148.615,216.667 149.067 M118.978 150.435 C 118.831 150.674,118.910 151.070,119.155 151.315 C 119.482 151.642,119.600 151.526,119.600 150.880 C 119.600 149.914,119.392 149.765,118.978 150.435 M159.067 150.267 C 158.648 150.685,158.755 152.400,159.200 152.400 C 159.420 152.400,159.600 151.860,159.600 151.200 C 159.600 149.957,159.519 149.815,159.067 150.267 M226.000 150.600 C 226.000 150.930,226.180 151.200,226.400 151.200 C 226.620 151.200,226.800 150.930,226.800 150.600 C 226.800 150.270,226.620 150.000,226.400 150.000 C 226.180 150.000,226.000 150.270,226.000 150.600 M273.200 150.225 C 273.200 150.525,274.273 151.600,274.571 151.600 C 275.080 151.600,274.751 150.962,274.000 150.493 C 273.560 150.218,273.200 150.098,273.200 150.225 M170.806 152.076 C 170.818 153.081,171.587 153.908,171.594 152.924 C 171.597 152.442,171.420 151.936,171.200 151.800 C 170.980 151.664,170.803 151.788,170.806 152.076 M226.000 152.600 C 226.000 152.930,226.180 153.200,226.400 153.200 C 226.620 153.200,226.800 152.930,226.800 152.600 C 226.800 152.270,226.620 152.000,226.400 152.000 C 226.180 152.000,226.000 152.270,226.000 152.600 M118.978 152.835 C 118.831 153.074,118.910 153.470,119.155 153.715 C 119.482 154.042,119.600 153.926,119.600 153.280 C 119.600 152.314,119.392 152.165,118.978 152.835 M216.174 167.000 C 216.175 172.720,216.231 175.004,216.299 172.076 C 216.368 169.148,216.367 164.468,216.299 161.676 C 216.230 158.884,216.174 161.280,216.174 167.000 M142.000 157.598 C 142.000 157.829,143.190 158.000,144.800 158.000 C 148.439 158.000,148.438 157.431,144.798 157.298 C 143.122 157.237,142.000 157.357,142.000 157.598 M278.800 157.976 C 278.800 158.429,278.980 158.800,279.200 158.800 C 279.420 158.800,279.600 158.541,279.600 158.224 C 279.600 157.907,279.420 157.536,279.200 157.400 C 278.980 157.264,278.800 157.523,278.800 157.976 M226.449 159.400 C 226.059 162.469,226.047 164.936,226.428 164.018 C 226.652 163.478,226.771 162.038,226.693 160.818 C 226.615 159.598,226.505 158.960,226.449 159.400 M249.693 162.000 C 249.693 162.770,249.775 163.085,249.876 162.700 C 249.976 162.315,249.976 161.685,249.876 161.300 C 249.775 160.915,249.693 161.230,249.693 162.000 M259.911 175.900 C 259.850 183.105,259.935 189.171,260.100 189.380 C 260.265 189.589,260.400 183.694,260.400 176.280 C 260.400 168.866,260.315 162.800,260.211 162.800 C 260.107 162.800,259.972 168.695,259.911 175.900 M249.709 168.800 C 249.709 169.790,249.787 170.195,249.882 169.700 C 249.978 169.205,249.978 168.395,249.882 167.900 C 249.787 167.405,249.709 167.810,249.709 168.800 M279.763 176.000 C 279.763 179.630,279.823 181.115,279.898 179.300 C 279.972 177.485,279.972 174.515,279.898 172.700 C 279.823 170.885,279.763 172.370,279.763 176.000 M249.693 172.400 C 249.693 173.170,249.775 173.485,249.876 173.100 C 249.976 172.715,249.976 172.085,249.876 171.700 C 249.775 171.315,249.693 171.630,249.693 172.400 M249.714 175.800 C 249.717 176.900,249.795 177.303,249.887 176.695 C 249.979 176.086,249.977 175.186,249.882 174.695 C 249.787 174.203,249.711 174.700,249.714 175.800 M184.893 176.400 C 184.893 177.170,184.975 177.485,185.076 177.100 C 185.176 176.715,185.176 176.085,185.076 175.700 C 184.975 175.315,184.893 175.630,184.893 176.400 M176.400 177.976 C 176.400 178.429,176.580 178.800,176.800 178.800 C 177.020 178.800,177.200 178.541,177.200 178.224 C 177.200 177.907,177.020 177.536,176.800 177.400 C 176.580 177.264,176.400 177.523,176.400 177.976 M166.800 178.176 C 166.800 178.493,166.980 178.864,167.200 179.000 C 167.420 179.136,167.600 178.877,167.600 178.424 C 167.600 177.971,167.420 177.600,167.200 177.600 C 166.980 177.600,166.800 177.859,166.800 178.176 M249.701 179.800 C 249.705 180.680,249.787 180.993,249.883 180.495 C 249.979 179.998,249.975 179.278,249.875 178.895 C 249.775 178.513,249.696 178.920,249.701 179.800 M269.714 186.600 C 269.717 187.700,269.795 188.103,269.887 187.495 C 269.979 186.886,269.977 185.986,269.882 185.495 C 269.787 185.003,269.711 185.500,269.714 186.600 M151.169 185.900 C 151.153 186.065,151.078 186.515,151.005 186.900 C 150.931 187.285,151.035 187.600,151.235 187.600 C 151.436 187.600,151.600 187.150,151.600 186.600 C 151.600 185.711,151.247 185.137,151.169 185.900 M231.936 187.186 C 231.763 187.702,228.081 187.972,226.925 187.555 C 225.611 187.080,225.102 189.164,225.047 195.235 C 225.021 198.039,224.908 200.425,224.797 200.537 C 224.624 200.710,220.036 200.924,218.500 200.830 C 218.148 200.809,218.000 199.922,218.000 197.826 C 218.000 193.415,216.925 191.418,215.382 192.961 C 215.030 193.313,214.603 193.600,214.433 193.600 C 213.242 193.600,211.550 196.222,210.947 199.000 C 210.653 200.355,210.343 200.720,208.922 201.380 C 207.482 202.049,207.206 202.380,206.982 203.707 C 206.698 205.389,207.005 206.175,207.471 204.957 C 207.837 204.001,208.986 203.003,210.882 201.992 C 212.075 201.356,212.411 200.911,212.609 199.701 C 213.313 195.391,213.573 194.795,214.749 194.806 C 216.117 194.819,216.483 195.483,216.616 198.204 C 216.788 201.713,216.904 201.800,221.435 201.800 C 226.133 201.800,225.986 202.001,225.994 195.554 C 226.001 189.296,226.452 188.400,229.593 188.400 C 232.074 188.400,232.869 189.293,235.158 194.656 C 236.084 196.825,237.101 199.189,237.419 199.909 C 238.141 201.549,239.336 202.011,242.726 201.960 C 246.991 201.897,247.379 201.696,247.522 199.484 C 247.622 197.944,248.400 196.629,248.400 198.000 C 248.400 198.220,248.563 198.400,248.762 198.400 C 248.962 198.400,248.917 197.951,248.662 197.403 C 248.408 196.855,247.930 196.402,247.600 196.397 C 247.067 196.389,247.067 196.345,247.600 196.000 C 248.169 195.632,247.423 195.375,246.300 195.553 C 246.135 195.579,246.000 195.240,246.000 194.800 C 246.000 194.360,245.823 194.000,245.608 194.000 C 244.875 194.000,244.762 195.793,245.382 197.550 C 246.547 200.850,245.685 201.557,241.218 200.965 C 238.900 200.657,238.798 200.494,235.065 191.200 C 234.388 189.517,232.128 186.617,231.936 187.186 M178.550 190.856 C 178.610 192.915,178.999 195.897,179.414 197.483 C 180.307 200.895,180.464 200.651,177.142 201.003 C 173.851 201.351,173.200 200.849,172.456 197.384 C 171.106 191.103,171.478 191.379,164.787 191.696 C 159.489 191.947,158.006 192.696,157.991 195.127 C 157.986 195.937,157.656 197.320,157.257 198.200 C 156.858 199.080,156.607 200.025,156.699 200.300 C 156.811 200.633,156.422 200.801,155.533 200.802 C 152.821 200.807,151.239 201.533,150.597 203.068 C 149.691 205.238,149.859 205.341,151.547 203.653 C 152.732 202.468,153.532 202.041,154.975 201.825 C 157.529 201.442,158.251 200.605,158.596 197.632 C 159.041 193.801,160.042 193.200,165.977 193.200 C 170.459 193.200,170.602 193.285,170.995 196.200 C 171.681 201.284,172.405 202.000,176.860 202.000 C 181.319 202.000,182.032 200.490,180.139 195.050 C 179.039 191.886,179.586 190.000,181.605 190.000 C 184.009 190.000,185.597 192.986,185.606 197.526 C 185.614 201.607,185.624 201.617,189.956 201.976 C 193.668 202.283,195.600 203.197,195.600 204.646 C 195.600 205.425,196.329 205.698,196.924 205.142 C 197.218 204.867,197.380 204.228,197.283 203.721 C 197.184 203.204,197.303 202.800,197.553 202.800 C 197.799 202.800,198.000 202.640,198.000 202.444 C 198.000 202.051,196.776 201.817,191.400 201.182 C 187.025 200.666,187.193 200.826,186.941 196.953 C 186.640 192.347,185.800 190.127,184.342 190.086 C 183.713 190.068,182.676 189.681,182.038 189.227 C 181.399 188.772,180.648 188.400,180.370 188.400 C 180.091 188.400,179.543 188.110,179.151 187.756 C 178.473 187.142,178.444 187.288,178.550 190.856 M129.213 201.156 C 129.206 201.462,129.515 201.951,129.900 202.243 C 130.716 202.863,134.000 202.988,134.000 202.400 C 134.000 202.180,133.165 202.000,132.144 202.000 C 130.846 202.000,130.129 201.790,129.757 201.300 C 129.369 200.789,129.222 200.750,129.213 201.156 M134.800 202.400 C 134.800 202.620,135.509 202.800,136.376 202.800 C 137.243 202.800,138.064 202.620,138.200 202.400 C 138.351 202.156,137.737 202.000,136.624 202.000 C 135.621 202.000,134.800 202.180,134.800 202.400 M263.062 203.300 C 263.308 203.699,265.600 203.687,265.600 203.288 C 265.600 203.116,264.987 202.981,264.239 202.988 C 263.490 202.994,262.960 203.135,263.062 203.300 M253.321 213.884 C 253.277 214.658,253.346 215.187,253.474 215.059 C 253.821 214.712,253.970 212.828,253.665 212.640 C 253.519 212.550,253.364 213.110,253.321 213.884 M227.600 214.000 C 227.600 214.747,227.707 214.853,228.080 214.480 C 228.453 214.107,228.453 213.893,228.080 213.520 C 227.707 213.147,227.600 213.253,227.600 214.000 M196.510 214.800 C 196.543 215.240,196.712 215.600,196.885 215.600 C 197.058 215.600,197.200 215.240,197.200 214.800 C 197.200 214.360,197.031 214.000,196.825 214.000 C 196.619 214.000,196.477 214.360,196.510 214.800 M149.412 214.917 C 149.241 215.312,149.213 215.747,149.351 215.884 C 149.757 216.290,150.084 215.720,149.897 214.931 C 149.732 214.233,149.710 214.232,149.412 214.917 M253.200 216.424 C 253.200 216.877,253.380 217.136,253.600 217.000 C 253.820 216.864,254.000 216.493,254.000 216.176 C 254.000 215.859,253.820 215.600,253.600 215.600 C 253.380 215.600,253.200 215.971,253.200 216.424 M194.819 221.300 C 194.512 222.015,194.182 222.780,194.085 223.000 C 193.988 223.220,194.379 222.780,194.954 222.022 C 196.021 220.617,196.245 220.000,195.688 220.000 C 195.516 220.000,195.125 220.585,194.819 221.300 " stroke="none" fill="#848895" fill-rule="evenodd"></path></g></svg>